<?xml version="1.0" encoding="utf-8"?>
<!-- Generator: Adobe Illustrator 25.0.0, SVG Export Plug-In . SVG Version: 6.00 Build 0)  -->
<svg version="1.1" id="레이어_1" xmlns="http://www.w3.org/2000/svg" xmlns:xlink="http://www.w3.org/1999/xlink" x="0px"
	 y="0px" viewBox="0 0 65.2 66.5" style="enable-background:new 0 0 65.2 66.5;" xml:space="preserve">
<style type="text/css">
	.st0{fill:#9825F2;}
</style>
<g>
	<path d="M55.3,28.7h-1.2v-0.9c-1.3-4.9-6.9-14.2-20.6-14.2S14,22.9,12.9,27.8v0.9h-1.2c-3.1,0-7.6,2.6-7.6,5.7s4.4,5.7,7.6,5.7h1.2
		v0.7l0.2,0.6C13.3,41.9,16.7,53,33.6,53S53.9,41.9,54,41.4v-1.5c3.1-0.7,7-2.8,7-5.5S56.9,28.7,55.3,28.7z M22.7,40.1h21.5
		c-1.3,1.5-4.3,3.6-10.7,3.6S24,41.6,22.7,40.1L22.7,40.1z M22.4,28.7c0.8-2,3.6-5.9,11.1-5.9s10.3,4.1,11.1,5.9H22.4z"/>
	<path class="st0" d="M46.3,39.8c-1.5,1.8-5.1,4.3-12.8,4.3s-11.3-2.5-12.8-4.3H46.3z"/>
	<path class="st0" d="M46.3,29.2H20.7c0.9-2.3,4.2-6.9,12.8-6.9S45.3,27,46.3,29.2z"/>
</g>
</svg>
