<svg xmlns="http://www.w3.org/2000/svg" viewBox="0 0 250 66.5"><defs><style>.a{fill:#9825f2;}</style></defs><path d="M245.1,13h-1v-.8C243,8,238.2,0,226.4,0s-16.7,8-17.6,12.2V13h-1c-2.7,0-6.5,2.2-6.5,4.9s3.8,4.9,6.5,4.9h1v.6l.2.5c.1.4,3,9.9,17.5,9.9s17.4-9.5,17.5-9.9V22.6c2.7-.6,6-2.4,6-4.7S246.5,13,245.1,13Zm-27.9,9.8h18.4c-1.1,1.3-3.7,3.1-9.2,3.1S218.3,24.1,217.2,22.8Zm-.3-9.8c.7-1.7,3.1-5.1,9.5-5.1s8.8,3.5,9.5,5.1Z" transform="translate(0 0)"/><path d="M53.8,33.9a8.4,8.4,0,0,0,2-5.4,4.1,4.1,0,0,0-1.3-3,5.5,5.5,0,0,0-1.7-1,7.2,7.2,0,0,0-2.8-.4,7.3,7.3,0,0,0-3.7.8c-3.3,1.5-6.6,4.6-9.7,9.1l-3.4,4.7c-1.3,1.7-3.5,4.5-6.7,8.3s-7.6,7.7-9.8,8.4a5.4,5.4,0,0,1-1.6-1c-1.5-1.5-2.3-3.8-2.3-6.7a19.7,19.7,0,0,1,2.1-8.5l2.1-2a14.2,14.2,0,0,0,2.2-2A10.8,10.8,0,0,0,21,32.8a5.5,5.5,0,0,0,.7-2.3,7.8,7.8,0,0,0-.4-2.1,7.7,7.7,0,0,0-1.4-1.9,10.6,10.6,0,0,0-2.3-1.7,8.8,8.8,0,0,0-3.3-.6,9.4,9.4,0,0,0-3.7.7,15.9,15.9,0,0,0-6.2,5.5A25.7,25.7,0,0,0,0,45.1,29.7,29.7,0,0,0,3,58.8a29.1,29.1,0,0,0,2.7,4.1A13.2,13.2,0,0,0,8.3,65l2.2,1.1a12.4,12.4,0,0,0,4,.4c3.4,0,9.4-3.7,18.1-11.3L38.2,50l6.1-6C46.5,41.8,49.6,38.5,53.8,33.9Z" transform="translate(0 0)"/><path d="M235.7,43.3a1.7,1.7,0,0,0-1.2-.5c-1.4,0-3.1.7-5.3,2.3l-5.4,4.2a19.4,19.4,0,0,1-2.9,2.1L218,53.3l-2.8,1.3a7.5,7.5,0,0,1-2.4.4,4.5,4.5,0,0,1-2.4-1c-1-.7-1.5-1.4-1.5-2s1.5-1.5,2.5-2.7l1.7-2.2a20.7,20.7,0,0,0,1.5-2.5,11.5,11.5,0,0,0,1.2-2.5,6.8,6.8,0,0,0,.5-2.2,8.6,8.6,0,0,0-.1-1.7c-.2-1.6-1.7-2.4-4.6-2.4a10.7,10.7,0,0,0-6.5,2.6,20.1,20.1,0,0,0-5.8,6.5c-.1.1-.1.1-.1.2l-1.3.9-5.2,4c-4.1,3-6.9,4.6-8.4,4.6a3.7,3.7,0,0,1-2.9-1.9,6,6,0,0,1-1.3-3.8,16.5,16.5,0,0,1,1.7-7.7,51.7,51.7,0,0,0,10.3-10.8,27.9,27.9,0,0,0,2.7-5,10.5,10.5,0,0,0,1-4.1,3.5,3.5,0,0,0-1.5-2.9,3.5,3.5,0,0,0-1.3-.8,4.1,4.1,0,0,0-1.6-.3,6.9,6.9,0,0,0-2.5.8c-3.5,1.8-7.2,5.1-11.1,10s-7.9,11.9-8.9,17.2l-1,.7-3.6,2.9-2,1.5-1.7,1.1-1.2.4c-.3,0-.7-.5-1-1.5a10.9,10.9,0,0,1-.5-1.4,8.8,8.8,0,0,0-.5-1.5,4.2,4.2,0,0,0-4.3-2.9c-2.6,0-5.7,1.2-9.5,3.5l-2.5,1.4c-3.7,2.2-6.1,3.3-7.1,3.3s-1.6-.3-1.6-1a3.1,3.1,0,0,1,1.1-2c2.6-2.5,6.6-4.8,12.1-7.2l3.7-1.5a4.7,4.7,0,0,0,2.1-1.4,3.3,3.3,0,0,0,.5-1.9,1.7,1.7,0,0,0-1.9-1.9c-3.8,0-8.8,1.1-14.9,3.4s-11.3,5.2-14.3,8.2l-.4.4-.4.3c-5.6,4.5-10.6,6.7-14.8,6.7a6.7,6.7,0,0,1-4.7-1.7,4.9,4.9,0,0,1-1.4-1.8,5.4,5.4,0,0,1-.5-2.1,4.7,4.7,0,0,1,1-2.4,6.1,6.1,0,0,1,3-2.3,16.9,16.9,0,0,0,6.4,1,8.3,8.3,0,0,0,7.1-3.9,5.5,5.5,0,0,0,.7-2.8,2.6,2.6,0,0,0-1.2-2.3,2.3,2.3,0,0,0-1.2-.6,4.8,4.8,0,0,0-1.8-.3l-3.6.4A46.4,46.4,0,0,0,96.8,40a27.6,27.6,0,0,0-8.1,5.2l-1,.5c-2.2,1.3-3.9,2-5.3,2s-2.7-.6-2.7-1.6a2.9,2.9,0,0,1,.2-.9,4.4,4.4,0,0,0,.2-1.3,6.2,6.2,0,0,0-1.9-4.8,7.2,7.2,0,0,0-2.5-1.6,7.9,7.9,0,0,0-3.8-.9,38.4,38.4,0,0,0-10.7,1.9A53.6,53.6,0,0,0,55,41a30.1,30.1,0,0,0-7.2,4.8q-5.1,4.2-5.1,9A11.4,11.4,0,0,0,45,61.3a9.4,9.4,0,0,0,7.9,3.9c3.2,0,6.9-1.1,11.2-3.2a29.3,29.3,0,0,0,9.1-6.6l1.2.7a10.7,10.7,0,0,0,5.1,1.1,11,11,0,0,0,5-1.3A9,9,0,0,0,85.8,59a13,13,0,0,0,1.8,2.3,17.4,17.4,0,0,0,2.6,1.9,22,22,0,0,0,3.4,1.3,20.5,20.5,0,0,0,4.7.4,27.2,27.2,0,0,0,6.1-.7,39.9,39.9,0,0,0,13.9-6,10.8,10.8,0,0,0,2,3.4,9.1,9.1,0,0,0,7,3.2c2.1,0,5.4-1.2,9.7-3.5l3.6-2.1,6.3-3.9.7,2.6a10.9,10.9,0,0,0,2.4,4.7c1.3,1.1,3.3,1.1,6.1.1s8.3-4.4,12.8-8.6a17.5,17.5,0,0,0,2.7,6.7,9.6,9.6,0,0,0,7.8,4.1c4.4,0,9.4-2.2,15.1-6.7l2.6-2.3a13.3,13.3,0,0,0,7.4,8.3,10,10,0,0,0,4.3,1,13.2,13.2,0,0,0,4.2-.7,31.5,31.5,0,0,0,4.3-1.9,35.7,35.7,0,0,0,4.5-2.7,45.9,45.9,0,0,0,4.4-3.3c1.4-1.1,2.7-2.3,3.9-3.4s2.2-2.4,3.1-3.4a20.9,20.9,0,0,0,2.1-3,4,4,0,0,0,.8-2.1A2.3,2.3,0,0,0,235.7,43.3ZM67.9,49.2a24.8,24.8,0,0,1-6.1,3.7l-2.8,1a3.7,3.7,0,0,1-2.9-.5c-.4-.2-.6-.8-.6-1.6h.1a2.3,2.3,0,0,1,.7-1.4c1.4-1.8,3.7-3.4,6.6-5.1S67.7,43,69.3,43a6.7,6.7,0,0,0-1.9,4.3A4.5,4.5,0,0,0,67.9,49.2Z" transform="translate(0 0)"/><path className="a" d="M235.6,22.8c-1.1,1.3-3.7,3.1-9.2,3.1s-8.1-1.8-9.2-3.1Z" transform="translate(0 0)"/><path className="a" d="M235.9,13h-19c.7-1.7,3.1-5.1,9.5-5.1S235.2,11.4,235.9,13Z" transform="translate(0 0)"/></svg>